<?xml version="1.0" encoding="UTF-8" standalone="no"?>
<!DOCTYPE svg PUBLIC "-//W3C//DTD SVG 1.1//EN" "http://www.w3.org/Graphics/SVG/1.1/DTD/svg11.dtd">
<svg xmlns="http://www.w3.org/2000/svg" version="1.1" viewBox="0.00 0.00 1840.00 677.00">
<path fill="#276fd8" d="
  M 501.41 367.75
  Q 492.66 408.15 464.49 440.04
  A 2.15 2.13 -68.8 0 1 462.90 440.75
  L 29.24 440.75
  A 0.90 0.90 0.0 0 1 28.39 440.15
  Q 8.31 381.28 10.29 321.73
  Q 13.19 233.93 59.48 159.46
  C 86.44 116.10 124.41 78.85 168.53 52.52
  Q 240.18 9.76 324.04 6.63
  C 392.34 4.09 459.83 23.18 516.91 61.44
  Q 568.04 95.72 604.01 147.39
  A 0.40 0.39 72.5 0 1 603.69 148.01
  Q 527.71 147.96 495.25 148.07
  C 491.06 148.08 490.65 147.22 487.13 144.40
  C 430.57 99.04 358.21 81.25 287.01 95.77
  C 198.19 113.89 126.30 181.63 102.78 269.27
  Q 90.51 314.97 96.42 362.52
  Q 96.73 365.09 97.12 366.74
  A 0.65 0.63 83.1 0 0 97.74 367.24
  L 501.00 367.24
  A 0.42 0.42 0.0 0 1 501.41 367.75
  Z"
/>
<path fill="#276fd8" d="
  M 820.68 218.75
  L 921.13 218.75
  A 0.63 0.62 -90.0 0 1 921.75 219.38
  L 921.75 286.97
  A 1.50 1.45 65.9 0 1 921.40 287.93
  C 902.60 309.98 871.47 319.43 843.75 321.80
  Q 814.41 324.30 786.70 318.61
  C 772.29 315.65 757.42 309.74 745.59 301.18
  Q 715.92 279.70 713.39 240.53
  Q 712.49 226.65 715.29 213.53
  C 727.33 157.06 787.33 143.45 836.30 145.88
  C 864.83 147.29 894.07 156.04 915.37 174.92
  A 0.54 0.53 47.5 0 1 915.34 175.75
  L 875.84 205.23
  A 0.74 0.73 44.6 0 1 874.97 205.23
  C 864.63 197.56 854.89 192.04 842.07 190.21
  Q 824.77 187.73 807.70 191.19
  C 782.71 196.26 769.56 214.76 772.28 240.13
  C 775.98 274.65 810.23 281.79 839.14 279.14
  Q 854.26 277.76 867.00 270.01
  A 2.10 2.09 74.4 0 0 868.00 268.22
  L 868.00 256.36
  A 0.61 0.60 90.0 0 0 867.40 255.75
  L 820.49 255.75
  A 0.49 0.48 -0.0 0 1 820.00 255.27
  L 820.00 219.44
  A 0.69 0.68 -90.0 0 1 820.68 218.75
  Z"
/>
<path fill="#276fd8" d="
  M 1719.28 145.57
  C 1743.54 145.57 1768.56 149.71 1789.73 161.98
  C 1816.75 177.64 1829.90 203.50 1829.90 234.07
  C 1829.90 264.65 1816.75 290.50 1789.73 306.16
  C 1768.56 318.43 1743.53 322.57 1719.28 322.57
  C 1695.02 322.57 1670.00 318.43 1648.83 306.16
  C 1621.81 290.49 1608.66 264.64 1608.66 234.06
  C 1608.66 203.49 1621.81 177.64 1648.84 161.97
  C 1670.01 149.70 1695.03 145.57 1719.28 145.57
  Z
  M 1667.43 234.17
  C 1667.49 264.84 1692.32 277.13 1719.27 277.08
  C 1746.21 277.03 1771.00 264.65 1770.94 233.98
  C 1770.88 203.31 1746.05 191.02 1719.10 191.07
  C 1692.16 191.12 1667.37 203.50 1667.43 234.17
  Z"
/>
<path fill="#276fd8" d="
  M 1151.14 316.57
  A 0.26 0.26 0.0 0 1 1150.94 317.00
  L 1085.76 317.00
  A 1.18 1.16 -19.3 0 1 1084.85 316.57
  L 1045.38 268.74
  A 1.33 1.33 0.0 0 0 1044.35 268.25
  L 1007.13 268.25
  A 0.63 0.63 0.0 0 0 1006.50 268.88
  L 1006.50 316.60
  A 0.40 0.40 0.0 0 1 1006.10 317.00
  L 949.06 317.00
  A 0.30 0.30 0.0 0 1 948.76 316.70
  L 948.76 151.34
  A 0.34 0.33 -90.0 0 1 949.09 151.00
  Q 1044.81 150.99 1067.25 151.01
  C 1087.98 151.02 1110.73 155.33 1127.18 168.53
  C 1141.90 180.34 1147.64 197.52 1145.83 216.04
  Q 1143.76 237.11 1127.68 250.44
  Q 1117.56 258.84 1105.40 262.55
  A 0.39 0.39 0.0 0 0 1105.21 263.18
  L 1151.14 316.57
  Z
  M 1006.50 193.06
  L 1006.50 229.18
  A 0.27 0.27 0.0 0 0 1006.77 229.45
  L 1066.70 229.45
  A 20.70 16.57 -0.0 0 0 1087.40 212.88
  L 1087.40 209.36
  A 20.70 16.57 0.0 0 0 1066.70 192.79
  L 1006.77 192.79
  A 0.27 0.27 0.0 0 0 1006.50 193.06
  Z"
/>
<path fill="#276fd8" d="
  M 1269.54 276.50
  C 1284.72 276.50 1298.12 271.51 1305.63 257.62
  C 1310.05 249.45 1310.80 240.41 1310.79 229.50
  Q 1310.76 181.70 1310.76 151.40
  A 0.42 0.42 0.0 0 1 1311.18 150.98
  L 1368.37 150.98
  A 0.39 0.39 0.0 0 1 1368.76 151.37
  Q 1368.80 198.07 1368.76 241.00
  C 1368.74 266.56 1357.76 289.95 1336.95 304.61
  C 1317.66 318.20 1293.05 322.49 1269.55 322.50
  C 1246.05 322.50 1221.44 318.22 1202.15 304.65
  C 1181.33 289.99 1170.34 266.61 1170.30 241.05
  Q 1170.24 198.12 1170.26 151.42
  A 0.39 0.39 0.0 0 1 1170.65 151.03
  L 1227.84 151.00
  A 0.42 0.42 0.0 0 1 1228.26 151.42
  Q 1228.27 181.72 1228.27 229.52
  C 1228.26 240.43 1229.02 249.47 1233.44 257.63
  C 1240.96 271.52 1254.36 276.50 1269.54 276.50
  Z"
/>
<path fill="#276fd8" d="
  M 1400.10 317.00
  A 0.34 0.34 0.0 0 1 1399.76 316.66
  L 1399.76 151.30
  A 0.29 0.29 0.0 0 1 1400.05 151.01
  Q 1479.97 150.97 1518.00 151.03
  C 1552.41 151.09 1591.05 163.30 1595.29 203.56
  C 1597.23 222.06 1592.26 240.28 1578.12 252.62
  C 1561.90 266.78 1538.28 270.86 1517.00 270.95
  Q 1485.63 271.08 1458.13 270.95
  A 0.38 0.38 0.0 0 0 1457.75 271.33
  L 1457.75 316.52
  A 0.48 0.47 90.0 0 1 1457.28 317.00
  L 1400.10 317.00
  Z
  M 1457.76 193.04
  L 1457.76 231.70
  A 0.25 0.25 0.0 0 0 1458.01 231.95
  L 1515.82 231.95
  A 21.12 17.97 0.0 0 0 1536.94 213.98
  L 1536.94 210.76
  A 21.12 17.97 0.0 0 0 1515.82 192.79
  L 1458.01 192.79
  A 0.25 0.25 0.0 0 0 1457.76 193.04
  Z"
/>
<path fill="#ead121" d="
  M 171.39 293.59
  Q 180.55 252.78 207.99 221.07
  A 0.94 0.92 -69.1 0 1 208.69 220.75
  L 641.34 220.75
  A 0.67 0.66 79.8 0 1 641.96 221.19
  C 670.23 299.52 667.33 386.61 634.13 462.46
  Q 610.00 517.59 567.08 561.11
  C 493.61 635.61 388.30 669.99 284.08 653.52
  C 195.62 639.54 115.75 588.58 65.62 513.90
  A 0.26 0.26 0.0 0 1 65.84 513.50
  L 176.48 513.50
  A 1.32 1.31 -24.5 0 1 177.34 513.82
  C 224.08 554.15 283.08 575.30 344.55 573.03
  C 435.75 569.66 517.36 514.86 555.12 432.10
  Q 579.76 378.08 576.45 318.00
  Q 575.77 305.58 573.87 294.74
  A 0.60 0.59 84.7 0 0 573.29 294.25
  L 171.92 294.25
  A 0.55 0.54 -84.0 0 1 171.39 293.59
  Z"
/>
<path fill="#276fd8" d="
  M 709.63 486.98
  A 0.36 0.36 0.0 0 1 709.58 486.46
  L 737.70 453.92
  A 0.67 0.66 37.6 0 1 738.59 453.81
  C 747.89 460.28 757.73 465.63 768.86 469.40
  Q 797.61 479.13 828.54 477.07
  C 836.27 476.55 844.66 475.57 850.53 470.79
  A 3.20 3.03 88.5 0 0 851.24 470.00
  C 857.60 460.03 845.65 456.44 837.90 454.97
  Q 826.68 452.83 811.01 451.65
  Q 794.77 450.41 777.00 447.00
  C 749.78 441.78 714.49 429.48 716.58 395.01
  C 718.75 359.30 758.00 345.87 787.50 342.71
  Q 825.58 338.62 862.31 347.88
  C 876.46 351.45 891.07 357.37 903.01 365.29
  A 0.25 0.24 36.4 0 1 903.07 365.64
  L 875.97 399.04
  A 0.51 0.50 35.8 0 1 875.31 399.14
  C 856.99 387.45 837.18 382.89 815.53 382.06
  C 806.84 381.72 780.21 381.41 774.80 390.03
  C 769.12 399.11 787.84 401.90 792.51 402.46
  C 809.15 404.46 828.12 405.44 847.30 408.43
  C 874.95 412.73 909.24 422.96 910.24 457.47
  C 911.55 502.94 864.15 516.88 828.07 518.07
  Q 817.02 518.44 809.52 518.27
  C 774.79 517.47 737.15 508.16 709.63 486.98
  Z"
/>
<rect fill="#276fd8" x="934.23" y="346.99" width="58.02" height="166.00" rx="0.40"/>
<path fill="#276fd8" d="
  M 1090.65 347.00
  L 1153.33 347.00
  A 0.34 0.34 0.0 0 1 1153.63 347.19
  L 1237.47 512.51
  A 0.34 0.34 0.0 0 1 1237.17 513.00
  L 1176.69 513.00
  A 0.34 0.34 0.0 0 1 1176.38 512.80
  L 1163.01 484.45
  A 0.34 0.34 0.0 0 0 1162.70 484.25
  L 1080.55 484.25
  A 0.34 0.34 0.0 0 0 1080.24 484.45
  L 1066.89 512.80
  A 0.34 0.34 0.0 0 1 1066.58 513.00
  L 1006.81 513.00
  A 0.34 0.34 0.0 0 1 1006.51 512.51
  L 1090.35 347.19
  A 0.34 0.34 0.0 0 1 1090.65 347.00
  Z
  M 1098.22 446.06
  A 0.31 0.31 0.0 0 0 1098.50 446.50
  L 1144.76 446.50
  A 0.31 0.31 0.0 0 0 1145.04 446.06
  L 1121.91 396.60
  A 0.31 0.31 0.0 0 0 1121.35 396.60
  L 1098.22 446.06
  Z"
/>
<path fill="#276fd8" d="
  M 1430.50 416.62
  A 0.22 0.21 64.6 0 0 1430.12 416.48
  L 1371.37 488.88
  A 2.90 2.89 45.1 0 1 1366.87 488.87
  L 1308.57 416.73
  A 0.32 0.32 0.0 0 0 1308.00 416.93
  L 1308.00 512.38
  A 0.62 0.62 0.0 0 1 1307.38 513.00
  L 1252.78 513.00
  A 0.78 0.78 0.0 0 1 1252.00 512.22
  L 1252.00 347.51
  A 0.51 0.51 0.0 0 1 1252.51 347.00
  L 1314.76 347.00
  A 1.12 1.10 -18.0 0 1 1315.65 347.44
  L 1370.25 418.60
  A 0.37 0.37 0.0 0 0 1370.84 418.60
  L 1426.01 347.30
  A 0.79 0.76 18.1 0 1 1426.63 347.00
  L 1487.37 347.00
  A 0.63 0.63 0.0 0 1 1488.00 347.63
  L 1488.00 512.23
  A 0.77 0.77 0.0 0 1 1487.23 513.00
  L 1431.10 513.00
  A 0.60 0.59 -0.0 0 1 1430.50 512.41
  L 1430.50 416.62
  Z"
/>
<path fill="#276fd8" d="
  M 1578.50 448.69
  L 1578.50 470.56
  A 0.44 0.44 0.0 0 0 1578.94 471.00
  L 1703.55 471.00
  A 0.44 0.44 0.0 0 1 1703.99 471.44
  L 1703.99 512.56
  A 0.44 0.44 0.0 0 1 1703.55 513.00
  L 1521.94 513.00
  A 0.44 0.44 0.0 0 1 1521.50 512.56
  L 1521.50 347.44
  A 0.44 0.44 0.0 0 1 1521.94 347.00
  L 1700.81 347.00
  A 0.44 0.44 0.0 0 1 1701.25 347.44
  L 1701.25 388.31
  A 0.44 0.44 0.0 0 1 1700.81 388.75
  L 1578.94 388.75
  A 0.44 0.44 0.0 0 0 1578.50 389.19
  L 1578.50 409.32
  A 0.44 0.44 0.0 0 0 1578.94 409.76
  L 1678.06 409.76
  A 0.44 0.44 0.0 0 1 1678.50 410.20
  L 1678.50 447.81
  A 0.44 0.44 0.0 0 1 1678.06 448.25
  L 1578.94 448.25
  A 0.44 0.44 0.0 0 0 1578.50 448.69
  Z"
/>
</svg>
