<?xml version="1.0" encoding="utf-8"?>
<!-- Generator: Adobe Illustrator 27.2.0, SVG Export Plug-In . SVG Version: 6.00 Build 0)  -->
<svg version="1.1" id="Capa_1" xmlns="http://www.w3.org/2000/svg" xmlns:xlink="http://www.w3.org/1999/xlink" x="0px" y="0px"
	 viewBox="0 0 346.9 289.38" style="enable-background:new 0 0 346.9 289.38;" xml:space="preserve">
<style type="text/css">
	.st0{fill:#F3E106;}
	.st1{fill:#DDC709;}
	.st2{fill:#3B6BB3;}
	.st3{fill:#2758A5;}
</style>
<g>
	<path class="st0" d="M164.75,39.31c-3.51,4.38-6.75,9.08-9.7,14.09c-5.33,9.02-9.6,18.87-12.71,29.26
		c-12.96-30.85-41.17-43.73-66.27-39.39C101.12,25.59,139.19,24.08,164.75,39.31z"/>
	<path class="st1" d="M173.45,257.51c-16.74,5.66-29.15,4.1-40.91-3.84c11.02,5.95,21.4,5.56,31.17-0.85
		C167.2,254.81,170.46,256.4,173.45,257.51z"/>
	<path class="st0" d="M159.23,250.12c1.53,0.97,3.02,1.87,4.48,2.7c-9.77,6.4-20.14,6.8-31.17,0.85
		C66.81,203.35,13.27,148.97,10.79,95.81c0-46.46,26.75-75.78,63.96-83.49c37.12-6.34,68.33,5.1,90,26.99
		C112.3,4.23,39.74,34.87,31.54,86.96l-0.01,0.09c-0.03,0.16-0.05,0.33-0.08,0.49c-0.04,0.29-0.09,0.58-0.13,0.88
		c-4.07,30.55,19.87,66.88,45.65,91.86C104.96,206.33,136.21,235.6,159.23,250.12z"/>
	<path class="st2" d="M235.09,124.59v28.47c0,5.38-4.36,9.74-9.74,9.74h-28.04v27.29c0,5.37-4.36,9.74-9.74,9.74h-28.47
		c-5.38,0-9.74-4.36-9.74-9.74v-27.29h-28.04c-5.38,0-9.74-4.36-9.74-9.74v-28.47c0-5.38,4.36-9.74,9.74-9.74h28.03
		c0,0.04,0,0.07,0,0.11h0.22c0-0.04,0-0.07,0.01-0.11c0.44-6.1,1.28-12.07,2.49-17.87c2.8-13.38,7.6-25.87,14.15-36.96
		c0.7-1.18,1.42-2.35,2.16-3.49c-16.2,31.04,11.33,59.4,29.14,58.32h27.82C230.73,114.85,235.09,119.21,235.09,124.59z"/>
	<path class="st3" d="M198.46,105.37c-0.43,3.04-0.74,6.21-0.92,9.48c-17.8,1.07-45.33-27.28-29.14-58.32
		C158.48,85.13,185.28,104.98,198.46,105.37z"/>
	<path class="st2" d="M336.12,95.81c-0.86,18.44-7.86,37.02-19.39,55.53c-26.34,42.32-76.31,84.26-130.53,123.17
		c-0.16,0.11-0.33,0.23-0.5,0.36c-7.32,5.23-17.16,5.24-24.48,0.01c-0.64-0.45-1.23-0.88-1.74-1.25
		c-9.14-6.57-18.15-13.23-26.94-19.96c11.76,7.94,24.17,9.5,40.91,3.84c22.95-8.51,62.16-45.28,96.47-77.23
		c28.33-27.45,54.43-68.59,43.61-100.71c-21.28-56.16-104.48-49.4-115.08,25.8c-13.18-0.39-39.98-20.24-30.06-48.85v0
		c1.59-2.48,3.28-4.89,5.05-7.21c21.58-28.24,56.27-44.23,98.7-36.99C309.36,20.03,336.12,49.35,336.12,95.81z"/>
	<path class="st1" d="M164.75,39.31c-25.56-15.23-63.63-13.72-88.68,3.96c-18.19,3.14-34.76,15.34-42.7,36.3
		c-0.81,2.42-1.42,4.88-1.83,7.39C39.74,34.87,112.3,4.23,164.75,39.31z"/>
</g>
</svg>
